<?xml version="1.0" standalone="no"?>
<!DOCTYPE svg PUBLIC "-//W3C//DTD SVG 20010904//EN"
 "http://www.w3.org/TR/2001/REC-SVG-20010904/DTD/svg10.dtd">
<svg version="1.0" xmlns="http://www.w3.org/2000/svg"
 width="1000.000000pt" height="1000.000000pt" viewBox="0 0 1000.000000 1000.000000"
 preserveAspectRatio="xMidYMid meet">

<g transform="translate(0.000000,1000.000000) scale(0.100000,-0.100000)"
fill="#000000" stroke="none">
<path d="M4704 7275 c-938 -128 -1698 -806 -1929 -1721 -49 -197 -59 -291 -59
-554 0 -269 10 -357 64 -571 200 -790 832 -1430 1618 -1640 200 -54 311 -69
532 -76 160 -4 236 -2 345 12 705 85 1325 490 1695 1105 322 534 406 1189 233
1805 -112 398 -361 794 -672 1069 -368 325 -784 514 -1270 575 -110 14 -442
12 -557 -4z m936 -625 c0 -11 -90 -165 -165 -285 -68 -107 -232 -397 -240
-424 -7 -22 -6 -23 36 -16 24 3 143 26 264 50 267 53 315 60 315 47 0 -15
-126 -231 -351 -600 -53 -86 -151 -249 -219 -362 -68 -113 -134 -222 -147
-242 -14 -20 -23 -42 -22 -47 3 -7 84 16 196 54 201 68 230 74 239 51 8 -20
-15 -59 -93 -156 -63 -79 -261 -318 -273 -330 -3 -3 -32 -36 -65 -75 -33 -38
-62 -72 -65 -75 -3 -3 -39 -45 -80 -95 -41 -49 -77 -92 -80 -95 -6 -5 -114
-130 -148 -170 -41 -49 -64 -75 -95 -110 -18 -19 -72 -82 -122 -140 -49 -58
-94 -110 -101 -116 -6 -7 -39 -46 -74 -88 -36 -42 -70 -76 -77 -76 -14 0 51
133 124 255 84 140 262 444 292 498 l32 57 -29 0 c-31 0 -178 -26 -337 -60
-49 -10 -121 -24 -160 -30 -38 -6 -80 -13 -92 -16 -17 -3 -23 0 -23 13 0 15
147 272 246 430 29 46 71 116 161 268 33 55 103 170 155 255 103 170 168 283
168 294 0 11 -53 -2 -194 -50 -71 -24 -131 -42 -133 -40 -5 5 51 164 73 208
29 58 250 337 359 454 19 20 131 148 250 284 156 179 262 296 365 402 79 82
110 103 110 78z"/>
</g>
</svg>
