<?xml version="1.0" standalone="no"?>
<!DOCTYPE svg PUBLIC "-//W3C//DTD SVG 20010904//EN"
 "http://www.w3.org/TR/2001/REC-SVG-20010904/DTD/svg10.dtd">
<svg version="1.0" xmlns="http://www.w3.org/2000/svg"
 width="1000.000000pt" height="1000.000000pt" viewBox="0 0 1000.000000 1000.000000"
 preserveAspectRatio="xMidYMid meet">

<g transform="translate(0.000000,1000.000000) scale(0.100000,-0.100000)"
fill="#000000" stroke="none">
<path d="M8045 6096 c-173 -35 -333 -159 -413 -320 -61 -123 -63 -149 -60
-802 4 -661 1 -634 80 -768 157 -266 498 -371 769 -236 150 74 248 184 308
344 l26 71 3 585 c2 392 -1 606 -8 650 -6 37 -30 103 -55 156 -116 241 -385
373 -650 320z m226 -377 c51 -25 105 -92 118 -144 7 -29 11 -220 11 -573 0
-604 2 -590 -79 -665 -91 -85 -221 -85 -312 0 -81 75 -79 60 -79 671 0 377 3
546 12 573 21 72 95 140 173 160 41 11 112 1 156 -22z"/>
<path d="M2955 6071 c-229 -45 -408 -212 -466 -435 -17 -65 -19 -120 -19 -646
0 -543 1 -579 20 -645 57 -201 201 -352 399 -415 89 -28 244 -28 335 1 190 58
329 196 397 394 l24 70 0 595 c0 593 0 595 -23 665 -63 191 -198 329 -388 396
-65 22 -212 33 -279 20z m125 -363 c0 -7 -15 -84 -34 -170 -18 -87 -29 -158
-24 -158 4 0 56 30 114 66 58 37 107 64 110 62 2 -3 -23 -135 -56 -293 -33
-159 -59 -290 -57 -291 1 -1 36 25 77 58 72 58 75 59 78 35 2 -14 -53 -170
-129 -363 -72 -187 -135 -350 -140 -363 -24 -60 -18 2 16 169 20 100 35 183
33 185 -2 2 -54 -28 -116 -67 -62 -38 -115 -68 -117 -66 -3 2 22 134 55 293
33 158 59 289 57 291 -1 2 -28 -17 -60 -42 l-57 -46 0 62 c0 55 12 92 117 356
103 260 134 325 133 282z"/>
<path d="M6506 5550 c-114 -285 -210 -528 -213 -540 -5 -20 -2 -20 192 -20
182 0 196 -1 191 -17 -26 -83 -285 -1018 -282 -1020 2 -2 184 286 405 639
l402 643 -216 3 -215 2 205 410 c113 226 205 412 205 415 0 3 -105 5 -233 5
l-233 0 -208 -520z"/>
<path d="M1234 6016 c3 -13 10 -56 16 -97 6 -41 17 -110 25 -154 8 -44 33
-195 55 -335 79 -495 91 -566 109 -675 11 -60 24 -144 30 -185 7 -41 21 -129
32 -195 11 -66 30 -183 42 -260 l22 -140 211 -3 212 -2 10 62 c35 207 100 602
193 1178 44 274 58 363 79 490 35 207 50 303 50 322 0 17 -13 18 -185 18
l-185 0 0 -28 c0 -16 -7 -69 -15 -118 -7 -49 -23 -150 -35 -224 -11 -74 -27
-175 -35 -225 -7 -49 -21 -139 -30 -200 -38 -246 -64 -380 -65 -324 0 22 -59
409 -101 669 -20 127 -40 247 -60 378 l-11 72 -185 0 -185 0 6 -24z"/>
<path d="M4032 5008 l3 -1033 528 -3 527 -2 0 185 0 185 -350 0 -350 0 0 850
0 850 -180 0 -180 0 2 -1032z"/>
<path d="M4970 5860 l0 -180 185 0 185 0 2 -852 3 -853 178 -3 177 -2 0 855 0
855 185 0 185 0 0 180 0 180 -550 0 -550 0 0 -180z"/>
</g>
</svg>
